<svg version="1.1" id="icons" 
	xmlns="http://www.w3.org/2000/svg" 
	xmlns:xlink="http://www.w3.org/1999/xlink" x="0px" y="0px" viewBox="0 0 24 24" enable-background="new 0 0 24 24" xml:space="preserve">
	<path fill="#ffffff" d="M17,0c-1.859,0-3.607,0.721-4.926,2.029c-0.008,0.007-0.019,0.01-0.027,0.018
	c-0.009,0.009-0.012,0.02-0.02,0.029c-1.633,1.648-2.324,3.955-1.892,6.225L0.495,20.274c-0.723,0.915-0.646,2.227,0.179,3.052
	C1.108,23.761,1.687,24,2.301,24c0.515,0,1.021-0.176,1.429-0.498l11.967-9.636c0.432,0.082,0.871,0.133,1.312,0.133
	c1.854,0,3.599-0.721,4.918-2.028c0.008-0.007,0.019-0.01,0.027-0.018c0.008-0.008,0.011-0.019,0.018-0.027
	C23.279,10.607,24,8.859,24,7c0-1.869-0.729-3.627-2.051-4.949S18.869,0,17,0z M3.106,22.72c-0.506,0.399-1.271,0.354-1.726-0.101
	c-0.466-0.466-0.51-1.208-0.104-1.722l9.427-11.708l4.106,4.106L3.106,22.72z M15.807,12.878l-4.685-4.685
	c-0.371-1.816,0.117-3.661,1.304-5.061l8.441,8.441C19.474,12.75,17.605,13.247,15.807,12.878z M21.579,10.872l-8.451-8.451
	C14.21,1.503,15.566,1,17,1c1.603,0,3.109,0.624,4.242,1.758C22.376,3.891,23,5.397,23,7C23,8.434,22.497,9.79,21.579,10.872z"/>
	<path fill="#ffffff" d="M10.146,13.854C10.244,13.951,10.372,14,10.5,14s0.256-0.049,0.354-0.146l1-1
	c0.195-0.195,0.195-0.512,0-0.707s-0.512-0.195-0.707,0l-1,1C9.951,13.342,9.951,13.658,10.146,13.854z"/>
</svg>
