<svg version="1.1" id="icons" 
	xmlns="http://www.w3.org/2000/svg" 
	xmlns:xlink="http://www.w3.org/1999/xlink" x="0px" y="0px" viewBox="0 0 24 24" enable-background="new 0 0 24 24" xml:space="preserve">

	<path fill="#0078d7" d="M20.063,20.161c0.005-0.007,0.005-0.016,0.01-0.023C21.887,18.105,23,15.433,23,12.5
	s-1.113-5.605-2.927-7.638c-0.005-0.008-0.005-0.017-0.011-0.025c-0.028-0.04-0.065-0.069-0.101-0.098
	c-1.507-1.642-3.48-2.842-5.711-3.392c-0.027-0.007-0.052-0.017-0.079-0.02C13.312,1.121,12.421,1,11.5,1
	c-0.921,0-1.812,0.121-2.671,0.326c-0.028,0.003-0.053,0.013-0.08,0.021C6.516,1.898,4.543,3.099,3.035,4.743
	C3,4.771,2.964,4.798,2.938,4.837C2.932,4.845,2.932,4.854,2.927,4.862C1.113,6.895,0,9.567,0,12.5s1.113,5.605,2.927,7.638
	c0.004,0.007,0.005,0.016,0.01,0.023c0.027,0.04,0.064,0.067,0.099,0.097c1.631,1.778,3.805,3.047,6.264,3.526
	c0.01,0.001,0.02,0.007,0.03,0.007c0.002,0,0.004-0.001,0.006-0.001C10.038,23.923,10.76,24,11.5,24s1.462-0.077,2.164-0.211
	c0.002,0,0.004,0.001,0.006,0.001c0.01,0,0.02-0.006,0.03-0.007c2.48-0.483,4.67-1.769,6.305-3.57
	C20.023,20.194,20.048,20.184,20.063,20.161z M12,22.975v-4.94c1.305,0.041,2.594,0.241,3.802,0.601
	c-0.588,1.529-1.39,2.935-2.403,4.184C12.943,22.903,12.475,22.952,12,22.975z M9.6,22.819c-1.012-1.248-1.814-2.654-2.402-4.183
	c1.208-0.36,2.498-0.56,3.802-0.601v4.94C10.525,22.952,10.057,22.903,9.6,22.819z M1.025,13h4.01
	c0.063,1.727,0.359,3.412,0.884,5.024c-0.886,0.338-1.709,0.744-2.46,1.215C2.028,17.534,1.138,15.368,1.025,13z M3.458,5.762
	c0.71,0.449,1.489,0.839,2.331,1.166C5.299,8.554,5.043,10.255,5.023,12H1.025C1.138,9.633,2.027,7.467,3.458,5.762z M11,2.025
	v4.939C9.644,6.922,8.302,6.705,7.042,6.315C7.568,4.849,8.28,3.489,9.178,2.267C9.768,2.133,10.377,2.055,11,2.025z M13.822,2.267
	c0.898,1.221,1.61,2.581,2.136,4.048c-1.26,0.39-2.601,0.607-3.958,0.649V2.025C12.623,2.055,13.232,2.133,13.822,2.267z M21.975,12
	h-3.997c-0.021-1.747-0.277-3.448-0.766-5.072c0.842-0.327,1.621-0.717,2.331-1.166C20.973,7.467,21.862,9.633,21.975,12z
	 M16.137,17.692c-1.315-0.396-2.718-0.615-4.137-0.657V13h4.965C16.902,14.612,16.626,16.185,16.137,17.692z M6.863,17.693
	C6.375,16.187,6.098,14.614,6.036,13H11v4.035C9.581,17.077,8.178,17.296,6.863,17.693z M6.732,7.266
	C8.092,7.69,9.545,7.933,11,7.979V12H6.022C6.042,10.37,6.28,8.783,6.732,7.266z M12,12V7.979c1.455-0.046,2.908-0.289,4.268-0.713
	c0.451,1.516,0.689,3.103,0.709,4.734H12z M16.898,5.977c-0.409-1.142-0.92-2.227-1.546-3.235c1.316,0.521,2.503,1.296,3.496,2.271
	C18.249,5.378,17.6,5.702,16.898,5.977z M6.102,5.977C5.4,5.702,4.751,5.378,4.152,5.013c0.993-0.975,2.181-1.75,3.496-2.271
	C7.022,3.75,6.51,4.836,6.102,5.977z M6.253,18.966c0.468,1.221,1.056,2.375,1.781,3.434c-1.469-0.516-2.791-1.342-3.88-2.41
	C4.8,19.598,5.499,19.254,6.253,18.966z M16.747,18.966c0.754,0.289,1.453,0.632,2.099,1.024c-1.089,1.068-2.411,1.895-3.88,2.41
	C15.691,21.34,16.28,20.186,16.747,18.966z M17.081,18.024c0.525-1.614,0.821-3.299,0.884-5.024h4.01
	c-0.112,2.368-1.002,4.534-2.434,6.239C18.79,18.768,17.968,18.362,17.081,18.024z"/>
</svg>
