<svg version="1.1" id="icons" 
	xmlns="http://www.w3.org/2000/svg" 
	xmlns:xlink="http://www.w3.org/1999/xlink" x="0px" y="0px" viewBox="0 0 24 24" enable-background="new 0 0 24 24" xml:space="preserve">

	<path fill="#0078d7" d="M0.5,23h4C4.776,23,5,22.776,5,22.5v-3c0-0.133-0.053-0.26-0.146-0.354l-2-2
	c-0.195-0.195-0.512-0.195-0.707,0l-2,2C0.053,19.24,0,19.367,0,19.5v3C0,22.776,0.224,23,0.5,23z M1,19.707l1.5-1.5l1.5,1.5V22H1
	V19.707z"/>
	<path fill="#0078d7" d="M8.854,13.146c-0.195-0.195-0.512-0.195-0.707,0l-2,2C6.053,15.24,6,15.367,6,15.5v7
	C6,22.776,6.224,23,6.5,23h4c0.276,0,0.5-0.224,0.5-0.5v-7c0-0.133-0.053-0.26-0.146-0.354L8.854,13.146z M10,22H7v-6.293l1.5-1.5
	l1.5,1.5V22z"/>
	<path fill="#0078d7" d="M14.854,8.146c-0.195-0.195-0.512-0.195-0.707,0l-2,2C12.053,10.24,12,10.367,12,10.5v12
	c0,0.276,0.224,0.5,0.5,0.5h4c0.276,0,0.5-0.224,0.5-0.5v-12c0-0.133-0.053-0.26-0.146-0.354L14.854,8.146z M16,22h-3V10.707
	l1.5-1.5l1.5,1.5V22z"/>
	<path fill="#0078d7" d="M18.5,23h4c0.276,0,0.5-0.224,0.5-0.5v-17c0-0.133-0.053-0.26-0.146-0.354l-2-2
	c-0.195-0.195-0.512-0.195-0.707,0l-2,2C18.053,5.24,18,5.367,18,5.5v17C18,22.776,18.224,23,18.5,23z M19,5.707l1.5-1.5l1.5,1.5V22
	h-3V5.707z"/>
	<path fill="#0078d7" d="M0.146,13.854C0.244,13.951,0.372,14,0.5,14s0.256-0.049,0.354-0.146L12,2.707V6.5C12,6.776,12.224,7,12.5,7
	S13,6.776,13,6.5v-5c0-0.065-0.013-0.13-0.038-0.191c-0.051-0.122-0.148-0.22-0.271-0.271C12.63,1.013,12.565,1,12.5,1h-5
	C7.224,1,7,1.224,7,1.5S7.224,2,7.5,2h3.793L0.146,13.146C-0.049,13.342-0.049,13.658,0.146,13.854z"/>
</svg>
