<svg version="1.1" id="icons" 
	xmlns="http://www.w3.org/2000/svg" 
	xmlns:xlink="http://www.w3.org/1999/xlink" x="0px" y="0px" viewBox="0 0 24 24" enable-background="new 0 0 24 24" xml:space="preserve">
	<path fill="#5B5B5B" d="M3.5,24h16c0.276,0,0.5-0.224,0.5-0.5V6.597c0.007-0.032,0.02-0.063,0.02-0.097
	c0-0.141-0.069-0.257-0.162-0.348c-0.002-0.002-0.002-0.004-0.004-0.005L19.797,6.09c-0.007-0.004-0.01-0.013-0.016-0.017
	l-4.927-4.926c-0.063-0.063-0.143-0.099-0.228-0.121c-0.021-0.006-0.04-0.009-0.061-0.012C14.543,1.01,14.522,1,14.5,1h-11
	C3.224,1,3,1.224,3,1.5v22C3,23.776,3.224,24,3.5,24z M15,2.707L18.293,6H15V2.707z M4,2h10v4.5C14,6.776,14.224,7,14.5,7H19v16H4V2
	z"/>
	<path fill="#5B5B5B" d="M16.5,10h-10C6.224,10,6,10.224,6,10.5v9C6,19.776,6.224,20,6.5,20h10c0.276,0,0.5-0.224,0.5-0.5v-9
	C17,10.224,16.776,10,16.5,10z M7,14h2v2H7V14z M10,14h6v2h-6V14z M16,13h-6v-2h6V13z M9,11v2H7v-2H9z M7,17h2v2H7V17z M10,19v-2h6
	v2H10z"/>
</svg>
