<svg version="1.1" id="icons" 
	xmlns="http://www.w3.org/2000/svg" 
	xmlns:xlink="http://www.w3.org/1999/xlink" x="0px" y="0px" viewBox="0 0 24 24" enable-background="new 0 0 24 24" xml:space="preserve">
	<path fill="#0078d7" d="M6.5,24h11c0.827,0,1.5-0.673,1.5-1.5v-21C19,0.673,18.327,0,17.5,0h-11C5.673,0,5,0.673,5,1.5v21
	C5,23.327,5.673,24,6.5,24z M18,19H6V5h12V19z M17.5,23h-11C6.224,23,6,22.776,6,22.5V20h12v2.5C18,22.776,17.776,23,17.5,23z
	 M6.5,1h11C17.776,1,18,1.224,18,1.5V4H6V1.5C6,1.224,6.224,1,6.5,1z"/>
	<path fill="#0078d7" d="M11.5,3h1C12.776,3,13,2.776,13,2.5S12.776,2,12.5,2h-1C11.224,2,11,2.224,11,2.5S11.224,3,11.5,3z"/>
	<path fill="#0078d7" d="M12.5,21h-1c-0.276,0-0.5,0.224-0.5,0.5s0.224,0.5,0.5,0.5h1c0.276,0,0.5-0.224,0.5-0.5S12.776,21,12.5,21z" />
</svg>
