<svg version="1.1" id="icons" 
	xmlns="http://www.w3.org/2000/svg" 
	xmlns:xlink="http://www.w3.org/1999/xlink" x="0px" y="0px" viewBox="0 0 24 24" enable-background="new 0 0 24 24" xml:space="preserve">
	<path fill="#002051" d="M20.5,0h-17C3.224,0,3,0.224,3,0.5V23H1.5C1.224,23,1,23.224,1,23.5S1.224,24,1.5,24h21
	c0.276,0,0.5-0.224,0.5-0.5S22.776,23,22.5,23H21V0.5C21,0.224,20.776,0,20.5,0z M4,1h16v22h-5v-4.5c0-0.276-0.224-0.5-0.5-0.5h-5
	C9.224,18,9,18.224,9,18.5V23H4V1z M14,23h-4v-4h4V23z"/>
	<path fill="#002051" d="M5.5,7h3C8.776,7,9,6.776,9,6.5v-3C9,3.224,8.776,3,8.5,3h-3C5.224,3,5,3.224,5,3.5v3C5,6.776,5.224,7,5.5,7
	z M6,4h2v2H6V4z"/>
	<path fill="#002051" d="M15.5,7h3C18.776,7,19,6.776,19,6.5v-3C19,3.224,18.776,3,18.5,3h-3C15.224,3,15,3.224,15,3.5v3
	C15,6.776,15.224,7,15.5,7z M16,4h2v2h-2V4z"/>
	<path fill="#002051" d="M10.5,7h3C13.776,7,14,6.776,14,6.5v-3C14,3.224,13.776,3,13.5,3h-3C10.224,3,10,3.224,10,3.5v3
	C10,6.776,10.224,7,10.5,7z M11,4h2v2h-2V4z"/>
	<path fill="#002051" d="M5.5,12h3C8.776,12,9,11.776,9,11.5v-3C9,8.224,8.776,8,8.5,8h-3C5.224,8,5,8.224,5,8.5v3
	C5,11.776,5.224,12,5.5,12z M6,9h2v2H6V9z"/>
	<path fill="#002051" d="M15.5,12h3c0.276,0,0.5-0.224,0.5-0.5v-3C19,8.224,18.776,8,18.5,8h-3C15.224,8,15,8.224,15,8.5v3
	C15,11.776,15.224,12,15.5,12z M16,9h2v2h-2V9z"/>
	<path fill="#002051" d="M10.5,12h3c0.276,0,0.5-0.224,0.5-0.5v-3C14,8.224,13.776,8,13.5,8h-3C10.224,8,10,8.224,10,8.5v3
	C10,11.776,10.224,12,10.5,12z M11,9h2v2h-2V9z"/>
	<path fill="#002051" d="M9,16.5v-3C9,13.224,8.776,13,8.5,13h-3C5.224,13,5,13.224,5,13.5v3C5,16.776,5.224,17,5.5,17h3
	C8.776,17,9,16.776,9,16.5z M8,16H6v-2h2V16z"/>
	<path fill="#002051" d="M15.5,17h3c0.276,0,0.5-0.224,0.5-0.5v-3c0-0.276-0.224-0.5-0.5-0.5h-3c-0.276,0-0.5,0.224-0.5,0.5v3
	C15,16.776,15.224,17,15.5,17z M16,14h2v2h-2V14z"/>
	<path fill="#002051" d="M10.5,17h3c0.276,0,0.5-0.224,0.5-0.5v-3c0-0.276-0.224-0.5-0.5-0.5h-3c-0.276,0-0.5,0.224-0.5,0.5v3
	C10,16.776,10.224,17,10.5,17z M11,14h2v2h-2V14z"/>
</svg>
