<svg version="1.1" id="icons" 
	xmlns="http://www.w3.org/2000/svg" 
	xmlns:xlink="http://www.w3.org/1999/xlink" x="0px" y="0px" viewBox="0 0 24 24" enable-background="new 0 0 24 24" xml:space="preserve">
	<path fill="#002051" d="M23.5,9c0.007,0,0.013,0,0.02,0c0.276,0,0.5-0.224,0.5-0.5c0-0.208-0.127-0.387-0.309-0.462
	L12.286,0.089c-0.172-0.119-0.399-0.119-0.571,0l-11.5,8c-0.179,0.125-0.257,0.351-0.191,0.56C0.088,8.858,0.282,9,0.5,9H4v10H2.5
	C2.224,19,2,19.224,2,19.5V22H0.5C0.224,22,0,22.224,0,22.5S0.224,23,0.5,23h23c0.276,0,0.5-0.224,0.5-0.5S23.776,22,23.5,22H22
	v-2.5c0-0.276-0.224-0.5-0.5-0.5H20V9H23.5z M12,1.109L21.906,8H2.094L12,1.109z M10,19V9h4v10H10z M5,9h4v10H5V9z M21,22H3v-2h18
	V22z M19,19h-4V9h4V19z"/>
	<path fill="#002051" d="M12,7c1.103,0,2-0.897,2-2s-0.897-2-2-2s-2,0.897-2,2S10.897,7,12,7z M12,4c0.551,0,1,0.449,1,1
	s-0.449,1-1,1c-0.551,0-1-0.449-1-1S11.449,4,12,4z"/>
</svg>
