<svg version="1.1" id="icons" 
	xmlns="http://www.w3.org/2000/svg" 
	xmlns:xlink="http://www.w3.org/1999/xlink" x="0px" y="0px" viewBox="0 0 24 24" enable-background="new 0 0 24 24" xml:space="preserve">
	<path fill="#ffffff" d="M0.5,22C0.776,22,1,21.776,1,21.5v-1.228C1,16.263,4.589,13,9,13s8,3.263,8,7.272V21.5
	c0,0.276,0.224,0.5,0.5,0.5s0.5-0.224,0.5-0.5v-1.228c0-3.775-2.768-6.961-6.535-7.949C12.971,11.461,14,9.856,14,8
	c0-2.757-2.243-5-5-5S4,5.243,4,8c0,1.856,1.029,3.461,2.535,4.323C2.768,13.312,0,16.497,0,20.272V21.5C0,21.776,0.224,22,0.5,22z
	 M5,8c0-2.206,1.794-4,4-4s4,1.794,4,4s-1.794,4-4,4S5,10.206,5,8z"/>
	<path fill="#ffffff" d="M16,12c-0.276,0-0.5,0.224-0.5,0.5S15.724,13,16,13c3.309,0,6,2.487,6,5.545V19.5c0,0.276,0.224,0.5,0.5,0.5
	s0.5-0.224,0.5-0.5v-0.955c0-2.89-2.016-5.345-4.802-6.209C19.282,11.619,20,10.393,20,9c0-2.206-1.794-4-4-4
	c-0.276,0-0.5,0.224-0.5,0.5S15.724,6,16,6c1.654,0,3,1.346,3,3S17.654,12,16,12z"/>
</svg>
