<svg version="1.1" id="icons" 
	xmlns="http://www.w3.org/2000/svg" 
	xmlns:xlink="http://www.w3.org/1999/xlink" x="0px" y="0px" viewBox="0 0 24 24" enable-background="new 0 0 24 24" xml:space="preserve">

	<path fill="#0078d7" d="M17.97,2.799C17.989,2.702,18,2.602,18,2.5C18,1.673,17.327,1,16.5,1S15,1.673,15,2.5S15.673,4,16.5,4
	c0.362,0,0.689-0.134,0.949-0.348L21,5.783v5.434l-4.5,2.7l-4.5-2.7V5.5c0-0.176-0.092-0.339-0.243-0.429l-5-3
	c-0.158-0.096-0.355-0.096-0.514,0l-5,3C1.092,5.161,1,5.324,1,5.5v6c0,0.176,0.092,0.339,0.243,0.429L6,14.783V20.5
	c0,0.176,0.092,0.339,0.243,0.429l5,3C11.322,23.977,11.411,24,11.5,24s0.178-0.023,0.257-0.071l3.794-2.277
	C15.811,21.866,16.138,22,16.5,22c0.827,0,1.5-0.673,1.5-1.5S17.327,19,16.5,19S15,19.673,15,20.5c0,0.102,0.011,0.202,0.03,0.299
	l-3.53,2.118l-4.5-2.7v-5.434l4.5-2.7l4.743,2.846C16.322,14.977,16.411,15,16.5,15s0.178-0.023,0.257-0.071l5-3
	C21.908,11.839,22,11.676,22,11.5v-6c0-0.176-0.092-0.339-0.243-0.429L17.97,2.799z M16.5,3C16.225,3,16,2.775,16,2.5
	S16.225,2,16.5,2S17,2.225,17,2.5c0,0.094-0.033,0.177-0.079,0.252c0,0,0,0,0,0.001c0,0,0,0,0,0C16.833,2.898,16.681,3,16.5,3z
	 M16.5,20c0.275,0,0.5,0.225,0.5,0.5S16.775,21,16.5,21c-0.181,0-0.333-0.102-0.421-0.247c0,0,0,0,0,0c0,0,0,0,0,0
	C16.033,20.677,16,20.594,16,20.5C16,20.225,16.225,20,16.5,20z M11,11.217l-4.5,2.7l-4.5-2.7V5.783l4.5-2.7l4.5,2.7V11.217z"/>
</svg>
