<?xml version="1.0" encoding="UTF-8"?> <svg xmlns="http://www.w3.org/2000/svg" width="500" height="201.8"> <path fill="#0072c6" d="M500 201.8H0V0h500v201.8"></path> <path fill="#fff" d="M110.3 189l-88-88 88-88.1 88 88zm5.4-63.3h10.8L140 72.8h-10.4l-6.8 34.6-.9 5.6-.2 1.2h-.2l-.8-6.6-7.7-34.8h-10.4zm37.6-44.1h3.6c2 0 3.7.6 5 2 1.4 1.5 2 3.6 2 6.3 0 6-2.2 9-7 9h-3.6zm0 26h4.2c5.2 0 9.4-1.7 12.5-5a18.7 18.7 0 0 0 4.6-13.1c0-5.4-1.5-9.6-4.2-12.5a15.6 15.6 0 0 0-11.8-4.4h-15.4v53h10.4zm-74.9-3a29.1 29.1 0 0 0-1 6.5l-.2 2H77c-.2-2-.6-4.9-1.5-8.2l-7.3-32H53.7v53h8.7V97.8L62.2 83h.2l1.5 9.4 8 33.5h9.2l7.7-34 1.7-8.9-.2 12V126H99v-53H85.3l-7 32m173.5-28.3V40.2l-1.5 7.7-6.4 28.7h-8L229 48l-1.3-8h-.2l.2 12.5v24h-7v-45h12L239 59l1.2 7 .4-1.6c0-2.5.4-4.4.7-5.6l6-27h11.6v44.9h-7.4m14.7 0v-32h8.3v32zm4.2-36.6c-1.7 0-2.7-.5-3.8-1.5-.8-1-1.2-2-1.2-3.5s.4-2.7 1.2-3.6c1-1 2.1-1.4 3.6-1.4 1.6 0 2.7.6 3.7 1.4.9.9 1.3 2.1 1.3 3.6 0 1.4-.4 2.7-1.3 3.5-1 1-2 1.5-3.7 1.5m28.5 35.3a10.4 10.4 0 0 1-6.7 1.9c-3.5 0-6.4-1.7-9-4.6a17.9 17.9 0 0 1-3.5-11.4c0-5.4 1.3-9.6 3.8-12.7a11.9 11.9 0 0 1 9.8-4.6 10.4 10.4 0 0 1 5.6 1.3v7.2a6.2 6.2 0 0 0-4.4-2c-2 0-3.5 1-4.6 2.9a15 15 0 0 0-1.6 7.2c0 3.4.4 5.7 1.4 7.3 1 1.7 2.5 2.5 4.4 2.5 1.9 0 3.3-.6 4.8-1.6v6.6M320.4 52a6.2 6.2 0 0 0-2.7-.6c-4.1 0-6 3.1-6 9v16.2h-8.3v-32h8.3v5.1c1.2-4 3.5-5.8 6.7-5.8l2 .2v8m14-1.5c-3.1 0-4.8 3.3-4.8 9.7 0 6.7 1.7 10 4.8 10 2.9 0 4.6-3.3 4.6-10.4 0-6.2-1.7-9.3-4.6-9.3zm-.2 26.6c-4.2 0-7.3-1.5-9.6-4.4a19.8 19.8 0 0 1-3.3-12.5c0-5.2 1-9.3 3.3-12a12 12 0 0 1 9.8-4.4c4.1 0 7.3 1.5 9.5 4.2a18.5 18.5 0 0 1 3.4 11.8c0 5.6-1 9.8-3.4 12.7a11.7 11.7 0 0 1-9.7 4.6m17.4-1.7v-7a12.5 12.5 0 0 0 7.1 2.2c2.5 0 3.8-1 3.8-3 0-1-.5-1.5-1-2.2l-3-2a15.6 15.6 0 0 1-5.8-4.8c-.8-1.7-1.3-3.4-1.3-5.2 0-2.7 1-5.2 3-6.9 2-1.9 4.7-2.7 8.3-2.7 2.3 0 4.5.4 6.4 1.3V52a12.5 12.5 0 0 0-5.8-1.9c-2.5 0-3.7 1-3.7 3.4 0 .6.2 1.2.6 1.6.4.7 1.6 1.5 3.5 2.5 2.7 1.7 4.6 3.2 5.4 4.6 1 1.5 1.5 3.1 1.5 5.2 0 3-1 5.2-3 7-2 1.8-4.7 2.8-8.3 2.8-3.3 0-5.8-.6-7.9-1.7m35.6-25c-2.9 0-4.6 3.4-4.6 9.8 0 6.7 1.7 10 4.8 10 3 0 4.6-3.3 4.6-10.4 0-6.2-1.7-9.3-4.6-9.3zm0 26.7c-4.1 0-7.3-1.5-9.6-4.4a19.8 19.8 0 0 1-3.5-12.5 18.7 18.7 0 0 1 3.5-12c2.3-3 5.7-4.4 9.8-4.4 4.2 0 7.3 1.5 9.6 4.2a18.5 18.5 0 0 1 3.3 11.8c0 5.6-1 9.8-3.3 12.7a11.7 11.7 0 0 1-9.8 4.6m32.5-41.8l-2.5-.2c-2.1 0-3.4 1.4-3.4 4.1v5.2h5.3v6.7h-5.3v25.4h-8.3V51.2h-3.5v-6.7h3.7v-5c0-3.3.9-6.2 2.7-8.3 2-1.9 4.4-2.7 8-2.7h2l1.3.4v6.5"></path> <path fill="#fff" d="M437.2 76.2a14.6 14.6 0 0 1-5.4 1c-5.5 0-8.4-3.3-8.4-10v-16h-6.2v-6.7h6.2v-7.3l.9-.2 7.5-2.3v9.8h5.4v6.7h-5.4v15.4c0 2.5 1 3.7 2.9 3.7 1 0 1.8 0 2.5-.4v6.3m10.6-35.6v2.7h1.4c.4 0 .9 0 1-.4.5-.2.7-.7.7-1 0-1-.6-1.3-2-1.3zm3 8l-.7-2.4c-.5-1-.9-1.5-1.5-1.5h-.8v4h-1.9v-9.8h3.1c1.3 0 2.1.2 3 .8.6.5.8 1 .8 2.1 0 1.3-.7 2.1-2.1 2.5.4 0 1 .6 1.2 1.5l1.3 2.9zm-1.6-11.4a6.2 6.2 0 0 0-4.8 2.1 6.2 6.2 0 0 0-1.8 4.6 6.5 6.5 0 0 0 6.6 6.7 6.2 6.2 0 0 0 4.6-2.1 6.2 6.2 0 0 0 2-4.6 6.2 6.2 0 0 0-2-4.8 6.2 6.2 0 0 0-4.6-1.9zm0 14.4c-2 0-4.1-.8-5.6-2a7.9 7.9 0 0 1-2-5.7c0-2 .6-4.2 2-5.4a7.7 7.7 0 0 1 5.6-2.3c2.1 0 4.2.8 5.6 2 1.5 1.5 2.1 3.4 2.1 5.7 0 2-.6 4-2 5.4a8.3 8.3 0 0 1-5.7 2m-205 73.5V98.4l.3-2.5-1 4.2-8.4 24.7h-2l-8.4-24.3-.8-4.6h-.2l.2 6.5v22.4h-3.1V91h4.5l8 24.6 1 3.7 1-4.1 7.7-24.2h4.4v34h-3.1m17.9-21.7c-1.7 0-3.1.8-4.2 2.5-.8 1.7-1.4 4.2-1.4 7 0 6.3 2 9.4 5.6 9.4 3.7 0 5.6-3 5.6-9.5 0-3-.6-5.2-1.5-6.9-1-1.7-2.3-2.5-4.1-2.5zm0 22c-3 0-5.2-1.2-6.7-3.3-1.7-2-2.5-5.2-2.5-9 0-4 .8-7.2 2.5-9.3a8.3 8.3 0 0 1 6.9-3.3c2.7 0 5 1 6.4 3.1 1.7 2 2.5 5.2 2.5 9 0 4.1-.8 7.2-2.3 9.5a8.3 8.3 0 0 1-6.8 3.4M275 124v-3.5a9.4 9.4 0 0 0 5.2 1.8c2.9 0 4.3-1.2 4.3-3.7 0-.8-.2-1.7-.8-2-.6-1-1.7-1.7-3.1-2.6a12.5 12.5 0 0 1-4.6-3.5c-.6-1-1-2-1-3.6a6.2 6.2 0 0 1 2-4.7 8.3 8.3 0 0 1 5.5-2.1c1.8 0 3.3.4 4.7 1v3.4c-1.6-.9-3-1.3-4.5-1.3a4.2 4.2 0 0 0-3 .8c-.8.9-1.2 1.7-1.2 2.7 0 .9.4 1.5.8 2.1.5.9 1.5 1.7 3.4 2.7a12.5 12.5 0 0 1 4.3 3.4c.7 1.2 1 2.2 1 3.7a6.2 6.2 0 0 1-2 4.8 8.3 8.3 0 0 1-5.6 1.9c-2.1 0-3.8-.5-5.4-1.3m26.6.6c-.8.5-1.9.7-3 .7-3.4 0-5.3-2.1-5.3-6.3v-15.4h-3.1v-2.9h3v-6l3.6-1v7h5v3h-5v14.9c0 2.5.9 3.5 2.7 3.5.9 0 1.5 0 2.1-.4v3m24 .1H322L312.7 91h4l6.6 25.6.7 3.6.8-3.8 6.9-25.4h3.7l-9.8 34m23.3-12.7l-4.5 1c-2.7.6-4.2 2-4.2 4.8 0 1.2.4 2.3 1 3.1.9.8 1.7 1.2 2.7 1.2a4.2 4.2 0 0 0 3.8-2c.8-1 1.2-2.7 1.2-4.8zm0 12.4v-3.5c-1.2 2.7-3.3 4.2-6.2 4.2-1.7 0-3.1-.7-4.2-2.1-1-1-1.6-2.7-1.6-4.8 0-4.2 2-6.7 6.4-7.7l5.6-1.3v-1.6c0-3.1-1.2-4.6-4.1-4.6-1.9 0-4 .8-6 2.5V102c2-1.3 4.3-2.1 6.6-2.1 4.6 0 7 2.7 7 7.9v16.6H349m9.4.4V89.1h3.3v35.7h-3.3m22.3 0v-3.7c-1.5 2.7-3.6 4.2-6.3 4.2-4.6 0-6.6-2.7-6.6-7.7v-16.9h3.3v15.8c0 3.6 1.5 5.4 4.4 5.4 1.4 0 2.7-.4 3.7-1.6.8-1 1.5-2.5 1.5-4.2v-15.6h3.3v24.3h-3.3m20.1-12.6l-4.7 1c-2.7.6-4.2 2-4.2 4.8 0 1.2.4 2.3 1.3 3.1.6.8 1.4 1.2 2.7 1.2a4.2 4.2 0 0 0 3.5-2c1-1 1.4-2.7 1.4-4.8zm0 12.4v-3.5a6.2 6.2 0 0 1-6.2 4.2c-1.9 0-3.1-.7-4.2-2.1-1.2-1-1.8-2.7-1.8-4.8 0-4.2 2-6.7 6.4-7.7l5.8-1.3v-1.6c0-3.1-1.4-4.6-4.1-4.6-2 0-4.2.8-6.3 2.5V102a14.6 14.6 0 0 1 6.7-2.1c4.8 0 7 2.7 7 7.9v16.6h-3.3m12.7-13v3.2c0 2.1.5 4.2 1.3 5.5.8 1.4 2 2 3.7 2 3.6 0 5.4-3.3 5.4-10.4 0-2.7-.4-4.8-1.2-6.2-1-1.5-2-2-3.7-2-1.7 0-3.2.5-4.2 2a12 12 0 0 0-1.3 5.8zm0 10.3v3.1H410V89.1h3.5v15.6c1.5-3 3.6-4.4 6.5-4.4a6.2 6.2 0 0 1 5.6 2.9c1.3 2 2 4.8 2 8.3 0 4.2-.7 7.7-2.2 10a6.9 6.9 0 0 1-6.2 3.8c-2.5 0-4.4-1.3-5.7-3.6m19 3.1V89.1h3.3v35.7h-3.3m21.6-14.1c0-5-1.6-7.7-4.6-7.7-1.4 0-2.7.8-3.7 2-1 1.3-1.5 3.2-1.7 5.7zm-10 3c0 5.7 2.1 8.6 6.3 8.6 2 0 3.7-.6 5.6-2v3.3a12 12 0 0 1-6 1.7 8.3 8.3 0 0 1-7-3.4c-1.6-2-2.4-5.2-2.4-9.3 0-3.6.8-6.7 2.5-9a7.7 7.7 0 0 1 6.6-3.3c5.2 0 7.7 3.5 7.7 11v2.1H444m-219.7 29.1v14.6h3.3c2.1 0 3.6-.8 4.6-2a8.3 8.3 0 0 0 1.7-5.5c0-4.8-2.1-7-6-7zm0 17.7V173h-3.5v-33.5h7.7c2.9 0 5.2.8 6.8 2.5 1.5 1.9 2.3 4.2 2.3 7.5a12.5 12.5 0 0 1-2.5 7.9 9.1 9.1 0 0 1-7.3 3.1h-3.5m29-8a6.2 6.2 0 0 0-2.2-.7c-3.5 0-5.2 3.1-5.2 9V173h-3.5v-24.3h3.5v4.1c.9-3 2.7-4.5 5.5-4.5l2 .2v3.5m9.8-.6c-1.7 0-3.1.8-4.1 2.5-.9 1.6-1.5 4-1.5 7 0 6.3 2 9.4 5.6 9.4 3.8 0 5.4-3.1 5.4-9.6 0-2.9-.4-5.4-1.2-6.8a4.4 4.4 0 0 0-4.2-2.5zm0 21.8a8.3 8.3 0 0 1-6.9-3.1c-1.4-2-2-5.2-2-9.2 0-3.9.6-7 2.3-9.3a8.3 8.3 0 0 1 6.6-3.3c3 0 5.2 1.2 6.7 3.3 1.6 2 2.5 5.2 2.5 9 0 4-.9 7-2.5 9.3-1.5 2.3-3.8 3.3-6.7 3.3m23.1-33l-2-.5c-2.2 0-3.4 1.5-3.4 4.2v5h4.8v2.7h-4.8v21.2h-3.3v-21H274v-2.7h3.6v-5c0-2 .6-4 1.6-5.2 1-1.3 2.7-1.9 4.8-1.9l2.1.2v3.1m14.6 18.6c0-5.2-1.5-7.7-4.6-7.7-1.5 0-2.7.6-3.8 2a10 10 0 0 0-1.4 5.7zm-9.8 2.7c0 5.8 2 8.7 6.2 8.7a10 10 0 0 0 5.6-1.9v3.4c-2 1-4 1.4-6.2 1.4a8.3 8.3 0 0 1-6.9-3.1c-1.6-2-2.3-5.2-2.3-9.4 0-3.7.9-6.6 2.3-9a7.7 7.7 0 0 1 6.7-3.4c5.2 0 7.9 3.7 7.9 11v2.3h-13.3m16.6 10.4v-3.4a9.4 9.4 0 0 0 5.2 2c3 0 4.2-1.3 4.2-4 0-.7 0-1.5-.6-2.1l-3.1-2.3a12.5 12.5 0 0 1-4.6-3.5c-.7-1.3-1-2.3-1-3.6a6.2 6.2 0 0 1 2-5 8.3 8.3 0 0 1 5.4-1.8c1.9 0 3.4.4 4.8 1v3.3a8.3 8.3 0 0 0-4.6-1.4 4.2 4.2 0 0 0-2.9 1c-.8.6-1.2 1.7-1.2 2.7 0 .8.2 1.5.8 2.1a10 10 0 0 0 3.3 2.5c2.1 1.2 3.8 2.5 4.4 3.5.6 1 1 2.1 1 3.6a6.2 6.2 0 0 1-2 4.8 8.3 8.3 0 0 1-5.7 2c-2 0-4-.6-5.4-1.4m16.7 0v-3.4a9.5 9.5 0 0 0 5.4 2c2.7 0 4.1-1.3 4.1-4a3 3 0 0 0-.8-2.1l-3.1-2.3a12.5 12.5 0 0 1-4.6-3.5 7.4 7.4 0 0 1-.8-3.6 6.2 6.2 0 0 1 2-5c1.3-1.2 3.2-1.8 5.5-1.8 1.6 0 3.1.4 4.6 1v3.3a8.3 8.3 0 0 0-4.6-1.4 4.2 4.2 0 0 0-3 1c-.8.6-1 1.7-1 2.7 0 .8 0 1.5.6 2.1.5.6 1.7 1.5 3.4 2.5a12.5 12.5 0 0 1 4.3 3.5c.7 1 1 2.1 1 3.6a6.2 6.2 0 0 1-2 4.8 8 8 0 0 1-5.6 2c-2 0-3.8-.6-5.4-1.4m17.7.8v-24h3.5v23.8zm1.8-29.1c-.6 0-1.2-.4-1.6-.9a2 2 0 0 1-.9-1.6c0-.9.2-1.3.9-1.7.4-.4 1-.6 1.6-.6.7 0 1.3 0 1.7.6.4.4.6.8.6 1.7 0 .6 0 1.2-.6 1.6-.4.5-1 .9-1.7.9m15.6 7.7c-1.6 0-3 .8-4.1 2.5-.9 1.6-1.5 4-1.5 7 0 6.3 2.1 9.4 5.6 9.4 3.8 0 5.5-3.1 5.5-9.6 0-2.9-.5-5.4-1.5-6.8a4.4 4.4 0 0 0-4-2.5zm0 21.8a8.3 8.3 0 0 1-6.8-3.1c-1.5-2-2.1-5.2-2.1-9.2 0-3.9.6-7 2-9.3 2-2.1 4.2-3.3 7-3.3 2.9 0 5.1 1.2 6.6 3.3 1.7 2 2.5 5.2 2.5 9 0 4-.8 7-2.5 9.3-1.5 2.3-3.7 3.3-6.9 3.3m26.9-.4v-16c0-3.6-1.5-5.4-4.2-5.4-1.7 0-2.9.4-3.7 1.6-.9 1-1.5 2.5-1.5 4.2v15.6h-3.3v-24h3.3v3.6a6.2 6.2 0 0 1 6.3-4.1c4.3 0 6.6 2.7 6.6 7.7v16.8H386m20.2-12.7l-4.8 1c-2.7.7-4.2 2.3-4.2 4.8 0 1.5.4 2.5 1.3 3.4.6.6 1.4 1 2.7 1a4.2 4.2 0 0 0 3.5-1.9c1-1.2 1.5-2.7 1.5-4.7zm0 12.7v-3.5c-1.5 2.7-3.4 4.1-6.3 4.1-1.9 0-3.3-.8-4.1-2a6.6 6.6 0 0 1-2-4.8c0-4.2 2.2-6.7 6.5-7.7l5.9-1.3v-1.6c0-3.2-1.5-4.6-4.2-4.6-2 0-4.2.8-6.2 2.5v-3.6a14.6 14.6 0 0 1 6.6-2c4.8 0 7 2.7 7 7.9v16.6h-3.2m9.1 0v-35.6h3.6v35.4h-3.6"></path> </svg> 